<?xml version="1.0" encoding="utf-8"?>
<!-- Generator: Adobe Illustrator 16.0.0, SVG Export Plug-In . SVG Version: 6.00 Build 0)  -->
<!DOCTYPE svg PUBLIC "-//W3C//DTD SVG 1.1//EN" "http://www.w3.org/Graphics/SVG/1.1/DTD/svg11.dtd">
<svg version="1.1" id="图层_1" xmlns="http://www.w3.org/2000/svg" xmlns:xlink="http://www.w3.org/1999/xlink" x="0px" y="0px"
	 width="64.285px" height="75px" viewBox="0 0 64.285 75" enable-background="new 0 0 64.285 75" xml:space="preserve">
<path d="M62.716,28.355L35.931,1.569c-2.093-2.093-5.482-2.093-7.575,0L1.569,28.355c-2.092,2.092-2.092,5.482,0,7.575
	c2.093,2.093,5.483,2.093,7.576,0L26.786,18.29v51.353c0,2.961,2.396,5.357,5.356,5.357s5.357-2.396,5.357-5.357V18.29
	l17.641,17.641c1.044,1.046,2.417,1.569,3.788,1.569c1.37,0,2.744-0.523,3.787-1.569C64.809,33.838,64.809,30.448,62.716,28.355z"/>
</svg>
