<?xml version="1.0" encoding="utf-8"?>
<!-- Generator: Adobe Illustrator 16.0.0, SVG Export Plug-In . SVG Version: 6.00 Build 0)  -->
<!DOCTYPE svg PUBLIC "-//W3C//DTD SVG 1.1//EN" "http://www.w3.org/Graphics/SVG/1.1/DTD/svg11.dtd">
<svg version="1.1" id="图层_1" xmlns="http://www.w3.org/2000/svg" xmlns:xlink="http://www.w3.org/1999/xlink" x="0px" y="0px"
	 width="17.093px" height="15.056px" viewBox="0 0 17.093 15.056" enable-background="new 0 0 17.093 15.056" xml:space="preserve">
<g>
	<path d="M2.273,7.982c0.006,0,0.019-0.043,0.036-0.101l-0.799-2.34c0,0,0.508-0.434,0.544-1.115l8.843-3.015
		c0.428,0.486,1.112,0.551,1.112,0.551l1.274,3.73h1.485l-1.63-4.775c0,0-0.884,0.295-1.336-0.881L0.518,3.883
		C0.881,5.089,0,5.396,0,5.396l1.895,5.547c0,0,0.158-0.05,0.372-0.028V7.922C2.267,7.964,2.269,7.982,2.273,7.982z"/>
	<path d="M10.644,2.292L2.8,4.967C2.71,5.32,2.541,5.601,2.392,5.793l0.514,1.504c0.1-0.17,0.206-0.333,0.32-0.341
		c0,0-0.052,0.003-0.061,0.003c-0.001,0-0.001,0,0.003,0c0,0,0,0-0.001,0c-0.002,0-0.003-0.001,0.002-0.002
		c0.013-0.011,0.068-0.104,0.077-0.337c0.019-0.518,0.446-0.929,0.965-0.929h8.278l-1.024-3.003
		C11.231,2.625,10.928,2.508,10.644,2.292z"/>
	<path d="M16.137,6.657H4.211C4.165,7.915,3.231,7.922,3.231,7.922v5.862c0,0,0.988,0.013,0.988,1.271h11.908
		c0-1.259,0.988-1.271,0.988-1.271V7.922C17.116,7.922,16.183,7.915,16.137,6.657z M15.71,13.181c0,0-0.662,0.218-0.882,0.885H5.497
		c-0.226-0.667-0.882-0.885-0.882-0.885V8.546c0,0,0.622-0.246,0.876-0.881h9.343c0.249,0.6,0.876,0.881,0.876,0.881V13.181z"/>
	<path d="M6.042,13.313h8.237c0.197-0.322,0.461-0.538,0.678-0.671V9.06c-0.2-0.137-0.449-0.347-0.647-0.642H6.021
		C5.822,8.725,5.57,8.935,5.368,9.07v3.574C5.584,12.776,5.847,12.991,6.042,13.313z"/>
</g>
</svg>
