<?xml version="1.0" encoding="utf-8"?>
<!-- Generator: Adobe Illustrator 16.0.0, SVG Export Plug-In . SVG Version: 6.00 Build 0)  -->
<!DOCTYPE svg PUBLIC "-//W3C//DTD SVG 1.1//EN" "http://www.w3.org/Graphics/SVG/1.1/DTD/svg11.dtd">
<svg version="1.1" id="图层_1" xmlns="http://www.w3.org/2000/svg" xmlns:xlink="http://www.w3.org/1999/xlink" x="0px" y="0px"
	 width="25.066px" height="25.066px" viewBox="0 0 25.066 25.066" enable-background="new 0 0 25.066 25.066" xml:space="preserve">
<path d="M20.816,7.727c0-4.248-3.58-7.692-8-7.692c-4.418,0-8,3.444-8,7.692c0,1.403,0.397,2.713,1.079,3.846H5.886l6.929,13.46
	l6.933-13.46h-0.01C20.421,10.439,20.816,9.129,20.816,7.727 M12.817,11.571c-2.209,0-4-1.722-4-3.846c0-2.123,1.791-3.846,4-3.846
	c2.211,0,4,1.723,4,3.846C16.817,9.85,15.028,11.571,12.817,11.571"/>
</svg>
