<?xml version="1.0" encoding="utf-8"?>
<!-- Generator: Adobe Illustrator 16.0.0, SVG Export Plug-In . SVG Version: 6.00 Build 0)  -->
<!DOCTYPE svg PUBLIC "-//W3C//DTD SVG 1.1//EN" "http://www.w3.org/Graphics/SVG/1.1/DTD/svg11.dtd">
<svg version="1.1" id="图层_1" xmlns="http://www.w3.org/2000/svg" xmlns:xlink="http://www.w3.org/1999/xlink" x="0px" y="0px"
	 width="25.066px" height="25.066px" viewBox="0 0 25.066 25.066" enable-background="new 0 0 25.066 25.066" xml:space="preserve">
<path fill="#040000" d="M10.678,12.529l9.06-9.497V3.03c0.297-0.319,0.479-0.76,0.479-1.244C20.217,0.801,19.453,0,18.51,0
	c-0.461,0-0.879,0.19-1.186,0.5V0.497L7.083,11.237l0,0c-0.322,0.324-0.521,0.78-0.521,1.287c0,0,0,0.002,0,0.004v0.002
	c0,0.504,0.199,0.962,0.521,1.286l0,0l10.243,10.74l0.004-0.005c0.307,0.31,0.723,0.499,1.182,0.499
	c0.941,0,1.705-0.804,1.705-1.791c0-0.545-0.23-1.025-0.596-1.355L10.678,12.529"/>
</svg>
