<?xml version="1.0" encoding="utf-8"?>
<!-- Generator: Adobe Illustrator 16.0.0, SVG Export Plug-In . SVG Version: 6.00 Build 0)  -->
<!DOCTYPE svg PUBLIC "-//W3C//DTD SVG 1.1//EN" "http://www.w3.org/Graphics/SVG/1.1/DTD/svg11.dtd">
<svg version="1.1" id="图层_1" xmlns="http://www.w3.org/2000/svg" xmlns:xlink="http://www.w3.org/1999/xlink" x="0px" y="0px"
	 width="19.291px" height="17.275px" viewBox="0 0 19.291 17.275" enable-background="new 0 0 19.291 17.275" xml:space="preserve">
<path fill-rule="evenodd" clip-rule="evenodd" d="M19.291,7.148c0,1.316-1.07,2.382-2.391,2.382S14.51,8.464,14.51,7.148l0,0l0,0
	l0,0c0,1.316-1.07,2.382-2.391,2.382S9.729,8.464,9.729,7.148l0,0l0,0l0,0l0,0c0,1.316-1.07,2.382-2.391,2.382
	S4.947,8.464,4.947,7.148l0,0l0,0l0,0l0,0c0,1.316-1.07,2.382-2.391,2.382S0.166,8.464,0.166,7.148l0,0l0,0l0,0l1.681-4.468H17.61
	L19.291,7.148L19.291,7.148L19.291,7.148z M16.303,1.787H3.154c-0.495,0-0.896-0.4-0.896-0.894C2.258,0.4,2.659,0,3.154,0h13.148
	c0.495,0,0.896,0.4,0.896,0.894C17.199,1.387,16.798,1.787,16.303,1.787z M2.855,10.41L2.855,10.41
	c0.086-0.008,0.17-0.021,0.254-0.035c0.019-0.004,0.036-0.004,0.055-0.008c0.038-0.008,0.075-0.02,0.114-0.027
	c0.162-0.037,0.321-0.082,0.474-0.143v0.002l0,0v4.395h11.953v-4.395l0,0v-0.002c0.152,0.061,0.312,0.105,0.473,0.143
	c0.039,0.008,0.076,0.02,0.115,0.027c0.018,0.004,0.036,0.004,0.055,0.008c0.084,0.014,0.168,0.027,0.254,0.035l0,0
	c0.098,0.01,0.198,0.016,0.299,0.016c0.204,0,0.403-0.021,0.598-0.059v6.014c0,0.494-0.401,0.895-0.896,0.895H2.855
	c-0.495,0-0.896-0.4-0.896-0.895v-6.014c0.194,0.037,0.394,0.059,0.598,0.059C2.657,10.425,2.758,10.419,2.855,10.41z"/>
</svg>
