<?xml version="1.0" encoding="utf-8"?>
<!-- Generator: Adobe Illustrator 16.0.0, SVG Export Plug-In . SVG Version: 6.00 Build 0)  -->
<!DOCTYPE svg PUBLIC "-//W3C//DTD SVG 1.1//EN" "http://www.w3.org/Graphics/SVG/1.1/DTD/svg11.dtd">
<svg version="1.1" id="图层_1" xmlns="http://www.w3.org/2000/svg" xmlns:xlink="http://www.w3.org/1999/xlink" x="0px" y="0px"
	 width="100px" height="100px" viewBox="0 0 100 100" enable-background="new 0 0 100 100" xml:space="preserve">
<g display="none">
	<g display="inline">
		<defs>
			<path id="SVGID_1_" d="M99.435,21.749c0,0-16.142,5.609-34.447,26.414C47.711,67.797,43.778,75.594,36.825,86.141
				c0,0-10.208-19.478-36.787-33.817l13.676-13.158c0,0,12.902,8.998,21.527,24.666c0,0,22.001-34.348,64.193-50.634V21.749
				L99.435,21.749L99.435,21.749L99.435,21.749z"/>
		</defs>
		<use xlink:href="#SVGID_1_"  overflow="visible" fill-rule="evenodd" clip-rule="evenodd"/>
		<clipPath id="SVGID_2_">
			<use xlink:href="#SVGID_1_"  overflow="visible"/>
		</clipPath>
	</g>
</g>
<g display="none">
	<path display="inline" fill="none" d="M19.984,17.53l0.035,70.083c0.49,2.785,1.686,4.088,4.149,4.63l50.365-0.031
		c3.937-0.67,5.052-2.871,5.022-8.854l0.035,8.846L79.556,17.5L19.984,17.53z M42.358,80.814c0,2.113-1.668,3.825-3.724,3.825
		c-2.057,0-3.724-1.712-3.724-3.825V29.158c0-2.116,1.667-3.827,3.724-3.827c2.056,0,3.724,1.711,3.724,3.827V80.814z
		 M64.701,80.814c0,2.113-1.667,3.825-3.722,3.825c-2.059,0-3.725-1.712-3.725-3.825V29.158c0-2.116,1.666-3.827,3.725-3.827
		c2.055,0,3.722,1.711,3.722,3.827V80.814z"/>
	<path display="inline" d="M60.979,25.331c-2.059,0-3.725,1.711-3.725,3.827v51.656c0,2.113,1.666,3.825,3.725,3.825
		c2.055,0,3.722-1.712,3.722-3.825V29.158C64.701,27.042,63.034,25.331,60.979,25.331z"/>
	<path display="inline" d="M38.634,25.331c-2.057,0-3.724,1.711-3.724,3.827v51.656c0,2.113,1.667,3.825,3.724,3.825
		c2.056,0,3.724-1.712,3.724-3.825V29.158C42.358,27.042,40.69,25.331,38.634,25.331z"/>
	<path display="inline" d="M91.751,10.076l-8.014,0.003c-0.131-0.013-0.258-0.042-0.4-0.042s-0.272,0.029-0.408,0.042l-27.575,0.016
		l0.01-5.071c0-2.513-2.043-4.553-4.486-4.553c-0.396,0-0.732,0.035-1.076,0.062c-0.377-0.026-0.734-0.062-1.168-0.062
		c-2.445,0-4.43,2.04-4.43,4.553l0.019,5.074l-26.89,0.013c-0.314-0.085-0.649-0.149-1.02-0.149c-0.373,0-0.711,0.064-1.031,0.152
		l-7.92,0.003c-2.446,0-4.147,1.009-4.147,3.522c0,2.516,1.7,3.897,4.147,3.897h5.139l0.038,73.815
		c0.199,4.828,3.75,8.691,8.505,8.691h4.434v0.037l48.757-0.029v-0.008h4.434c4.889,0,8.368-4.068,8.382-9.084l-0.039-73.462h4.74
		c2.448,0,4.432-1.381,4.432-3.897C96.183,11.083,94.202,10.076,91.751,10.076z M79.556,83.358c0.029,5.982-1.086,8.184-5.022,8.854
		l-50.365,0.031c-2.463-0.542-3.659-1.845-4.149-4.63L19.984,17.53L79.556,17.5l0.035,74.704L79.556,83.358z"/>
</g>
<g display="none">
	<g display="inline">
		<defs>
			<path id="SVGID_3_" d="M66.074,25.667c0-1.681-1.392-3.042-3.108-3.042H19.066c-1.72,0-3.115,1.361-3.115,3.042
				s1.395,3.042,3.115,3.042h43.904C64.689,28.709,66.074,27.348,66.074,25.667L66.074,25.667L66.074,25.667L66.074,25.667z"/>
		</defs>
		<defs>
			<path id="SVGID_4_" d="M98.675,76.451l-12.907-8.164c0.753-2.076,1.178-4.302,1.178-6.627c0-11.003-9.16-19.955-20.428-19.955
				c-11.261,0-20.425,8.951-20.425,19.955c0,11.001,9.165,19.954,20.425,19.954c6.649,0,12.553-3.136,16.284-7.953l12.479,7.902
				c0.523,0.326,1.107,0.487,1.687,0.487c1.022,0,2.02-0.487,2.617-1.386C100.527,79.249,100.115,77.362,98.675,76.451
				L98.675,76.451L98.675,76.451L98.675,76.451z"/>
		</defs>
		<defs>
			<path id="SVGID_5_" d="M66.518,75.53c-7.826,0-14.197-6.222-14.197-13.87c0-7.647,6.371-13.872,14.197-13.872
				c7.832,0,14.196,6.225,14.196,13.872C80.721,69.309,74.35,75.53,66.518,75.53L66.518,75.53L66.518,75.53L66.518,75.53z"/>
		</defs>
		<defs>
			<path id="SVGID_6_" d="M15.945,56.356c0,1.68,1.396,3.044,3.115,3.044h19.436c0.203-2.121,0.693-4.166,1.425-6.09H19.066
				C17.341,53.311,15.945,54.675,15.945,56.356L15.945,56.356L15.945,56.356L15.945,56.356z"/>
		</defs>
		<defs>
			<path id="SVGID_7_" d="M58.957,37.968H19.066c-1.72,0-3.115,1.364-3.115,3.042c0,1.68,1.395,3.044,3.115,3.044h27.202
				C49.729,40.924,54.106,38.75,58.957,37.968L58.957,37.968L58.957,37.968L58.957,37.968z"/>
		</defs>
		<defs>
			<path id="SVGID_8_" d="M76.258,83.374c0,2.919-2.765,5.296-6.17,5.296H12.879c-3.405,0-6.172-2.373-6.172-5.296V17.561
				c0-2.919,2.768-5.291,6.172-5.291h57.208c3.405,0,6.17,2.372,6.17,5.291v22.857c2.469,0.976,4.734,2.263,6.729,3.806V17.561
				c0-6.098-5.786-11.065-12.904-11.065H12.879c-7.115,0-12.91,4.962-12.91,11.065v65.816c0,6.099,5.789,11.066,12.91,11.066h57.208
				c7.112,0,12.904-4.962,12.904-11.066v-5.384c-1.993,1.543-4.261,2.829-6.729,3.806v1.575H76.258L76.258,83.374L76.258,83.374z"/>
		</defs>
		<use xlink:href="#SVGID_3_"  overflow="visible" fill-rule="evenodd" clip-rule="evenodd"/>
		<use xlink:href="#SVGID_4_"  overflow="visible" fill-rule="evenodd" clip-rule="evenodd"/>
		<use xlink:href="#SVGID_5_"  overflow="visible" fill-rule="evenodd" clip-rule="evenodd"/>
		<use xlink:href="#SVGID_6_"  overflow="visible" fill-rule="evenodd" clip-rule="evenodd"/>
		<use xlink:href="#SVGID_7_"  overflow="visible" fill-rule="evenodd" clip-rule="evenodd"/>
		<use xlink:href="#SVGID_8_"  overflow="visible" fill-rule="evenodd" clip-rule="evenodd"/>
		<clipPath id="SVGID_9_">
			<use xlink:href="#SVGID_3_"  overflow="visible"/>
		</clipPath>
		<clipPath id="SVGID_10_" clip-path="url(#SVGID_9_)">
			<use xlink:href="#SVGID_4_"  overflow="visible"/>
		</clipPath>
		<clipPath id="SVGID_11_" clip-path="url(#SVGID_10_)">
			<use xlink:href="#SVGID_5_"  overflow="visible"/>
		</clipPath>
		<clipPath id="SVGID_12_" clip-path="url(#SVGID_11_)">
			<use xlink:href="#SVGID_6_"  overflow="visible"/>
		</clipPath>
		<clipPath id="SVGID_13_" clip-path="url(#SVGID_12_)">
			<use xlink:href="#SVGID_7_"  overflow="visible"/>
		</clipPath>
		<clipPath id="SVGID_14_" clip-path="url(#SVGID_13_)">
			<use xlink:href="#SVGID_8_"  overflow="visible"/>
		</clipPath>
	</g>
</g>
<g display="none">
	<g display="inline">
		<defs>
			<polygon id="SVGID_15_" points="20.493,80.223 42.987,70.593 29.178,56.929 20.493,80.223 			"/>
		</defs>
		<defs>
			<polygon id="SVGID_16_" points="87.309,26.917 73.052,12.135 31.74,53.12 46.549,68.576 87.309,26.917 			"/>
		</defs>
		<defs>
			<path id="SVGID_17_" d="M99.05,9.232c0,0-3.771-4.195-8.114-7.388c-4.344-3.192-7.686,0-7.686,0l-7.347,7.388l14.919,14.952
				c0,0,6.294-6.386,8.228-8.567C100.985,13.434,99.05,9.232,99.05,9.232L99.05,9.232L99.05,9.232z"/>
		</defs>
		<defs>
			<path id="SVGID_18_" d="M83.159,87.963c0,1.034-0.836,1.875-1.863,1.875H11.724c-1.029,0-1.865-0.841-1.865-1.875V18.554
				c0-1.038,0.835-1.878,1.865-1.878h44.23l9.212-9.853H2.251C1.008,6.823,0,7.833,0,9.083v88.345c0,1.251,1.008,2.269,2.251,2.269
				h88.513c1.244,0,2.254-1.018,2.254-2.269V34.333l-9.859,9.203V87.963L83.159,87.963L83.159,87.963z"/>
		</defs>
		<use xlink:href="#SVGID_15_"  overflow="visible" fill-rule="evenodd" clip-rule="evenodd"/>
		<use xlink:href="#SVGID_16_"  overflow="visible" fill-rule="evenodd" clip-rule="evenodd"/>
		<use xlink:href="#SVGID_17_"  overflow="visible" fill-rule="evenodd" clip-rule="evenodd"/>
		<use xlink:href="#SVGID_18_"  overflow="visible" fill-rule="evenodd" clip-rule="evenodd"/>
		<clipPath id="SVGID_19_">
			<use xlink:href="#SVGID_15_"  overflow="visible"/>
		</clipPath>
		<clipPath id="SVGID_20_" clip-path="url(#SVGID_19_)">
			<use xlink:href="#SVGID_16_"  overflow="visible"/>
		</clipPath>
		<clipPath id="SVGID_21_" clip-path="url(#SVGID_20_)">
			<use xlink:href="#SVGID_17_"  overflow="visible"/>
		</clipPath>
		<clipPath id="SVGID_22_" clip-path="url(#SVGID_21_)">
			<use xlink:href="#SVGID_18_"  overflow="visible"/>
		</clipPath>
	</g>
</g>
<g display="none">
	<g>
		<defs>
			<rect id="SVGID_23_" x="-2.292" y="-2.149" width="104.75" height="104.75"/>
		</defs>
		<clipPath id="SVGID_24_" display="inline">
			<use xlink:href="#SVGID_23_"  overflow="visible"/>
		</clipPath>
		<path display="inline" clip-path="url(#SVGID_24_)" fill="none" stroke="#3689CA" stroke-width="2" stroke-miterlimit="10" d="
			M50.083,98.859c26.858,0,48.634-21.775,48.634-48.633c0-26.86-21.775-48.635-48.634-48.635c-26.859,0-48.634,21.775-48.634,48.635
			C1.449,77.084,23.224,98.859,50.083,98.859L50.083,98.859z"/>
	</g>
	<g>
		<defs>
			<path id="SVGID_25_" d="M42.665,36.631v9.533H27.636v3.307h42.797v-3.307H55.357v-9.533h13.229v-3.258h-10.99
				c0.972-1.313,1.847-2.773,2.675-4.426l-3.355-1.167c-0.924,1.946-1.994,3.794-3.162,5.593H43.54
				c-0.778-1.945-1.653-3.696-2.528-5.252l-3.647,0.583c0.875,1.41,1.7,2.966,2.479,4.668H29.485v3.258H42.665L42.665,36.631z"/>
		</defs>
		<defs>
			<polygon id="SVGID_26_" points="52.004,36.631 52.004,46.164 46.021,46.164 46.021,36.631 52.004,36.631 			"/>
		</defs>
		<defs>
			<path id="SVGID_27_" d="M63.334,37.896c-1.021,2.091-2.384,4.182-4.134,6.322l2.771,1.411c1.701-2.042,3.112-4.182,4.183-6.42
				L63.334,37.896L63.334,37.896z"/>
		</defs>
		<defs>
			<path id="SVGID_28_" d="M35.612,37.993l-3.063,1.021c1.264,1.946,2.384,4.134,3.356,6.663l2.966-1.313
				C37.946,42.126,36.876,39.987,35.612,37.993L35.612,37.993L35.612,37.993z"/>
		</defs>
		<defs>
			<polygon id="SVGID_29_" points="63.87,53.021 34.105,53.021 34.105,72.668 37.46,72.668 37.46,70.384 60.514,70.384 
				60.514,72.668 63.87,72.668 63.87,53.021 			"/>
		</defs>
		<defs>
			<polygon id="SVGID_30_" points="37.46,67.416 37.46,63.185 60.514,63.185 60.514,67.416 37.46,67.416 			"/>
		</defs>
		<defs>
			<polygon id="SVGID_31_" points="37.46,60.363 37.46,55.938 60.514,55.938 60.514,60.363 37.46,60.363 			"/>
		</defs>
		<use xlink:href="#SVGID_25_"  overflow="visible" fill-rule="evenodd" clip-rule="evenodd"/>
		<use xlink:href="#SVGID_26_"  overflow="visible" fill-rule="evenodd" clip-rule="evenodd"/>
		<use xlink:href="#SVGID_27_"  overflow="visible" fill-rule="evenodd" clip-rule="evenodd"/>
		<use xlink:href="#SVGID_28_"  overflow="visible" fill-rule="evenodd" clip-rule="evenodd"/>
		<use xlink:href="#SVGID_29_"  overflow="visible" fill-rule="evenodd" clip-rule="evenodd"/>
		<use xlink:href="#SVGID_30_"  overflow="visible" fill-rule="evenodd" clip-rule="evenodd"/>
		<use xlink:href="#SVGID_31_"  overflow="visible" fill-rule="evenodd" clip-rule="evenodd"/>
		<clipPath id="SVGID_32_" display="inline">
			<use xlink:href="#SVGID_25_"  display="none" overflow="visible"/>
		</clipPath>
		<clipPath id="SVGID_33_" display="inline" clip-path="url(#SVGID_32_)">
			<use xlink:href="#SVGID_26_"  display="none" overflow="visible"/>
		</clipPath>
		<clipPath id="SVGID_34_" display="inline" clip-path="url(#SVGID_33_)">
			<use xlink:href="#SVGID_27_"  display="none" overflow="visible"/>
		</clipPath>
		<clipPath id="SVGID_35_" display="inline" clip-path="url(#SVGID_34_)">
			<use xlink:href="#SVGID_28_"  display="none" overflow="visible"/>
		</clipPath>
		<clipPath id="SVGID_36_" display="inline" clip-path="url(#SVGID_35_)">
			<use xlink:href="#SVGID_29_"  display="none" overflow="visible"/>
		</clipPath>
		<clipPath id="SVGID_37_" display="inline" clip-path="url(#SVGID_36_)">
			<use xlink:href="#SVGID_30_"  display="none" overflow="visible"/>
		</clipPath>
		<clipPath id="SVGID_38_" display="inline" clip-path="url(#SVGID_37_)">
			<use xlink:href="#SVGID_31_"  display="none" overflow="visible"/>
		</clipPath>
	</g>
</g>
<path display="none" d="M50.084,0.467c-27.481,0-49.759,22.279-49.759,49.76c0,27.479,22.278,49.758,49.759,49.758
	c27.479,0,49.758-22.279,49.758-49.758C99.842,22.746,77.563,0.467,50.084,0.467z M50.084,97.484
	c-26.1,0-47.259-21.16-47.259-47.258c0-26.1,21.159-47.26,47.259-47.26c26.098,0,47.258,21.16,47.258,47.26
	C97.342,76.324,76.182,97.484,50.084,97.484z"/>
<g display="none">
	<defs>
		<path id="SVGID_39_" d="M26.377,44.031v3.405h12.938c-1.023,3.354-2.142,6.564-3.308,9.678H60.03
			c-2.577,3.21-6.127,6.321-10.6,9.24c-3.357-1.168-6.858-2.284-10.505-3.259l-1.849,2.725c7.733,2.091,15.272,4.911,22.568,8.51
			l1.944-3.063c-2.676-1.265-5.497-2.479-8.413-3.552c5.008-3.598,8.656-7.246,10.99-10.844v-3.015H41.016
			c0.68-1.995,1.411-4.134,2.09-6.42h26.943v-3.405H44.03c0.486-1.897,0.973-3.891,1.459-6.03h21.689v-3.258h-20.96
			c0.391-1.751,0.73-3.648,1.12-5.594l-3.6-0.291c-0.388,1.945-0.779,3.89-1.215,5.885h-12.84V38h12.111
			c-0.486,2.042-0.974,4.036-1.509,6.03H26.377L26.377,44.031z"/>
	</defs>
	<use xlink:href="#SVGID_39_"  display="inline" overflow="visible" fill-rule="evenodd" clip-rule="evenodd"/>
	<clipPath id="SVGID_40_" display="inline">
		<use xlink:href="#SVGID_39_"  overflow="visible"/>
	</clipPath>
</g>
<g display="none">
	<path display="inline" d="M33.423,88.339H15.274c-1.918,0-3.068-0.98-3.068-2.947V69.529c0-1.839-2.044-4.055-4.09-4.055
		c-2.045,0-3.322,1.477-3.322,3.317v16.6c0,5.526,4.601,9.951,10.352,9.951h17.256c1.916,0,3.451-1.47,3.451-3.316
		C36.107,90.428,35.341,88.339,33.423,88.339z"/>
	<path display="inline" d="M63.46,16.058h21.093c1.912,0,3.063,0.982,3.063,2.95v17.333c0,1.844,2.045,2.581,4.092,2.581
		c2.046,0,3.449-1.475,3.449-3.319V18.761c0-5.531-4.6-9.956-10.351-9.956H63.715c-1.92,0-3.451,1.476-3.451,3.319
		C60.264,13.968,61.542,16.058,63.46,16.058z"/>
	<path display="inline" d="M91.579,65.475c-1.918,0-4.092,2.216-4.092,4.055v15.862c0,1.84-1.022,2.947-3.063,2.947H63.46
		c-1.918,0-3.196,1.969-3.196,3.936c0,1.968,1.531,3.317,3.451,3.317h20.71c5.752,0,10.354-4.426,10.354-9.958V68.792
		C95.031,67.072,93.5,65.475,91.579,65.475z"/>
	<path display="inline" d="M95.8,49.25H4.025c-2.044,0-3.707,1.598-3.707,3.566c0,1.964,1.663,3.564,3.707,3.564H95.8
		c2.041,0,3.706-1.601,3.706-3.564C99.506,50.848,97.841,49.25,95.8,49.25z"/>
	<path display="inline" d="M8.243,38.922c1.918,0,4.09-2.212,4.09-4.056V18.885c0-1.845,1.023-2.952,3.068-2.952H31.89
		c1.917,0,4.218-1.965,4.218-3.933c0-1.966-1.534-3.196-3.452-3.196h-17.51c-5.751,0-10.352,4.425-10.352,9.956v16.598
		C4.793,37.324,6.326,38.922,8.243,38.922z"/>
</g>
<path fill-rule="evenodd" clip-rule="evenodd" d="M49.944,100c-13.246,0-25.779-5.125-35.299-14.648
	C3.107,73.813-1.976,57.852,0.699,41.561C4.211,20.116,21.773,3.2,43.411,0.425C60.623-1.804,77.503,4.83,88.515,18.117
	c2.654,3.2,2.583,7.745-0.167,10.807L58.664,61.919c-4.524,5.029-12.129,5.57-17.32,1.22l-19.542-16.37
	c-1.762-1.479-1.991-4.104-0.517-5.871c1.483-1.758,4.104-1.992,5.871-0.517l19.542,16.371c1.726,1.449,4.262,1.273,5.771-0.409
	l29.679-32.99c-9.225-10.995-23.291-16.5-37.679-14.666C26.46,11,11.84,25.07,8.919,42.907
	c-2.233,13.612,2.004,26.936,11.617,36.552c9.62,9.616,22.933,13.857,36.554,11.621c17.875-2.934,32.304-18.2,34.308-36.303
	c0.467-4.163,0.321-8.321-0.417-12.358c-0.292-1.575-0.67-3.142-1.141-4.662c-0.676-2.2,0.562-4.534,2.761-5.205
	c2.209-0.684,4.53,0.559,5.205,2.763c0.563,1.825,1.021,3.708,1.366,5.595c0.893,4.842,1.063,9.816,0.513,14.787
	c-2.449,22.091-19.412,40.023-41.245,43.607C55.59,99.771,52.752,100,49.944,100"/>
<g display="none">
	<path display="inline" fill="none" d="M10.46,42.666h14.052c0.32,0,0.569-0.216,0.569-0.468v-4.746V37.38
		c0-0.251-0.249-0.467-0.569-0.467H10.46c-0.32,0-0.569,0.216-0.569,0.467v4.818C9.891,42.45,10.14,42.666,10.46,42.666z"/>
	<path display="inline" fill="none" d="M51.05,66.072H10.46c-0.32,0-0.569,0.215-0.569,0.467v4.782c0,0.252,0.249,0.467,0.569,0.467
		h40.553c0.32,0,0.569-0.215,0.569-0.467v-4.746c0-0.036,0-0.036,0.035-0.036C51.618,66.287,51.37,66.072,51.05,66.072z"/>
	<path display="inline" fill="none" d="M10.425,57.228h31.767c0.32,0,0.569-0.216,0.569-0.468v-4.746v-0.072
		c0-0.251-0.249-0.467-0.569-0.467H10.46c-0.32,0-0.569,0.216-0.569,0.467L9.855,56.76C9.855,57.012,10.104,57.228,10.425,57.228z"
		/>
	<polygon display="inline" points="93.737,17.857 91.603,20.015 97.365,25.839 99.5,23.682 	"/>
	<polygon display="inline" points="64.425,46.621 61.757,55.609 71.006,53.344 96.05,28.032 89.433,21.345 	"/>
	<path display="inline" d="M56.278,61.182l4.838-16.215l3.024-3.056V31.879c0-1.654,0.569-2.229,1.244-2.229h9.32
		c0.427,0,0.783,0.216,0.997,0.539l5.3-5.357c-1.423-0.791-3.201-1.294-5.158-1.294H8.717c-4.518,0-8.217,2.588-8.217,5.752v47.1
		c0,3.163,3.664,5.753,8.217,5.753h67.126c4.518,0,8.182-2.59,8.182-5.753V45.901L72.998,57.083L56.278,61.182z M9.891,37.38
		c0-0.251,0.249-0.467,0.569-0.467h14.052c0.32,0,0.569,0.216,0.569,0.467v0.072v4.746c0,0.252-0.249,0.468-0.569,0.468H10.46
		c-0.32,0-0.569-0.216-0.569-0.468V37.38z M9.891,51.941c0-0.251,0.249-0.467,0.569-0.467h31.731c0.32,0,0.569,0.216,0.569,0.467
		v0.072v4.746c0,0.252-0.249,0.468-0.569,0.468H10.425c-0.32,0-0.569-0.216-0.569-0.468L9.891,51.941z M51.583,66.575v4.746
		c0,0.252-0.249,0.467-0.569,0.467H10.46c-0.32,0-0.569-0.215-0.569-0.467v-4.782c0-0.252,0.249-0.467,0.569-0.467H51.05
		c0.32,0,0.568,0.215,0.568,0.467C51.583,66.539,51.583,66.539,51.583,66.575z"/>
	<polygon display="inline" points="73.425,32.203 66.595,32.203 66.595,39.717 	"/>
</g>
</svg>
