<?xml version="1.0" encoding="utf-8"?>
<!-- Generator: Adobe Illustrator 16.0.0, SVG Export Plug-In . SVG Version: 6.00 Build 0)  -->
<!DOCTYPE svg PUBLIC "-//W3C//DTD SVG 1.1//EN" "http://www.w3.org/Graphics/SVG/1.1/DTD/svg11.dtd">
<svg version="1.1" id="图层_1" xmlns="http://www.w3.org/2000/svg" xmlns:xlink="http://www.w3.org/1999/xlink" x="0px" y="0px"
	 width="25.066px" height="25.066px" viewBox="0 0 25.066 25.066" enable-background="new 0 0 25.066 25.066" xml:space="preserve">
<path fill="#040000" d="M13.385,9.814l9.497,9.06h0.002c0.319,0.296,0.76,0.479,1.244,0.479c0.984,0,1.785-0.764,1.785-1.708
	c0-0.46-0.19-0.879-0.5-1.185h0.003L14.677,6.218l0,0c-0.324-0.322-0.78-0.521-1.287-0.521c0,0-0.002,0-0.004,0h-0.002
	c-0.504,0-0.962,0.199-1.286,0.521l0,0L1.359,16.461l0.005,0.004c-0.31,0.307-0.499,0.723-0.499,1.182
	c0,0.941,0.804,1.705,1.791,1.705c0.545,0,1.025-0.23,1.355-0.596L13.385,9.814"/>
</svg>
