<?xml version="1.0" encoding="utf-8"?>
<!-- Generator: Adobe Illustrator 16.0.0, SVG Export Plug-In . SVG Version: 6.00 Build 0)  -->
<!DOCTYPE svg PUBLIC "-//W3C//DTD SVG 1.1//EN" "http://www.w3.org/Graphics/SVG/1.1/DTD/svg11.dtd">
<svg version="1.1" id="图层_1" xmlns="http://www.w3.org/2000/svg" xmlns:xlink="http://www.w3.org/1999/xlink" x="0px" y="0px"
	 width="19.006px" height="19.001px" viewBox="0 0 19.006 19.001" enable-background="new 0 0 19.006 19.001" xml:space="preserve">
<path fill-rule="evenodd" clip-rule="evenodd" d="M18.987,9.658C18.987,9.658,18.987,9.658,18.987,9.658
	c0.008,0.033,0.012,0.066,0.016,0.1c0.001,0.006,0.003,0.012,0.003,0.02c0.004,0.033,0.004,0.066,0.005,0.102
	c0,0.008,0.001,0.014,0.001,0.02l0,0l0,0c0,0.295-0.106,0.563-0.283,0.77l0,0l-6.731,7.918l-0.001-0.002
	c-0.218,0.256-0.542,0.418-0.904,0.418l0,0l0,0c-0.039,0-0.076-0.002-0.115-0.006c-0.026-0.002-0.053-0.006-0.08-0.01
	c-0.008-0.002-0.018-0.004-0.026-0.006c-0.213-0.039-0.405-0.137-0.562-0.273l-0.002,0.002l-9.9-9.104L0.41,9.599
	C0.167,9.386,0.011,9.078,0.005,8.73H0V2.375V1.21V1.19h0.003c0-0.656,0.532-1.188,1.188-1.188V0h7.522v0.003
	c0.001,0,0.001,0,0.003,0c0.329,0,0.626,0.134,0.841,0.35l9.098,8.698C18.82,9.212,18.938,9.421,18.987,9.658z M3.172,1.586
	c-0.875,0-1.585,0.708-1.585,1.583s0.71,1.583,1.585,1.583c0.874,0,1.583-0.709,1.583-1.583S4.046,1.586,3.172,1.586z"/>
</svg>
