<?xml version="1.0" encoding="utf-8"?>
<!-- Generator: Adobe Illustrator 16.0.0, SVG Export Plug-In . SVG Version: 6.00 Build 0)  -->
<!DOCTYPE svg PUBLIC "-//W3C//DTD SVG 1.1//EN" "http://www.w3.org/Graphics/SVG/1.1/DTD/svg11.dtd">
<svg version="1.1" id="图层_1" xmlns="http://www.w3.org/2000/svg" xmlns:xlink="http://www.w3.org/1999/xlink" x="0px" y="0px"
	 width="100px" height="100px" viewBox="0 0 100 100" enable-background="new 0 0 100 100" xml:space="preserve">
<g id="Page-1">
	<g id="发票管家_设置账户" transform="translate(-10.000000, -197.000000)">
		<g id="listView" transform="translate(0.000000, 136.000000)">
			<path id="ic_code" d="M96.36,73.181c-0.861,0.03-1.691,0.041-2.517,0.041c-21.582,0-31.1-9.796-31.181-9.888L60.516,61
				l-2.167,2.334c-0.086,0.101-9.412,9.888-31.176,9.888c-0.82,0-1.661-0.011-2.521-0.041l-3.028-0.102v44.43
				c0,11.635,3.918,28.604,37.824,41.586l1.058,0.404l1.059-0.404c33.904-12.981,37.823-29.951,37.823-41.586V73.08L96.36,73.181
				L96.36,73.181z M57.174,129.003l-19.532-18.237l5.185-4.425l10.389,8.071c0,0,14.337-15.634,28.188-22.935l1.975,2.349
				C83.379,93.827,66.075,108.938,57.174,129.003L57.174,129.003z"/>
		</g>
	</g>
</g>
<g id="Page-1_1_" display="none">
	<g id="发票管家_设置账户_1_" transform="translate(-10.000000, -288.000000)" display="inline">
		<g id="listView_1_" transform="translate(0.000000, 136.000000)">
			<path id="ic_confirm" d="M108.404,195.271c-0.689-0.912-1.988-1.115-2.903-0.412l-48.439,36.071l-10.938-10.798
				c-0.814-0.824-2.133-0.824-2.938,0c-0.814,0.834-0.81,2.11,0.01,2.938l12.207,12.081c0.398,0.369,0.932,0.578,1.466,0.578
				c0.435,0,0.872-0.122,1.25-0.412l49.874-37.152C108.908,197.463,109.093,196.178,108.404,195.271z M56.869,239.865
				c-1.659,0-3.225-0.611-4.394-1.774l-12.208-12.082c-1.183-1.202-1.842-2.733-1.847-4.389c-0.004-1.652,0.645-3.223,1.819-4.425
				c1.173-1.16,2.744-1.822,4.416-1.822c1.658,0,3.224,0.662,4.398,1.822l8.387,8.275l36.837-27.426v-1.29h-4.16v-16.542
				c0-16.503-13.4-28.963-31.174-28.963h-4.154c-17.774,0-31.17,12.46-31.17,28.963v16.542h-2.084c-1.145,0-2.075,0.955-2.075,2.076
				v31.028c0,11.423,9.328,20.683,20.78,20.683h33.253c11.46,0,20.784-9.26,20.784-20.683v-16.3l-33.675,25.065
				C59.516,239.452,58.225,239.865,56.869,239.865z M27.769,180.213c0-14.36,11.364-24.823,27.02-24.823h4.154
				c15.659,0,27.014,10.462,27.014,24.823v16.542H27.769V180.213z"/>
		</g>
	</g>
</g>
<g id="Page-1_2_" display="none">
	<g id="发票管家_设置账户_输入中1" transform="translate(-192.000000, -79.000000)" display="inline">
		<g id="listView_2_" transform="translate(0.000000, 61.000000)">
			<path id="ic_delete" d="M261.691,85.414c0.798,0.806,0.798,2.087,0,2.893c-0.396,0.396-0.914,0.588-1.44,0.588
				c-0.519,0-1.045-0.192-1.446-0.588l-16.897-16.91l-16.904,16.91c-0.396,0.396-0.915,0.588-1.44,0.588
				c-0.519,0-1.044-0.192-1.447-0.588c-0.792-0.806-0.792-2.087,0-2.893l16.911-16.897l-16.911-16.897
				c-0.792-0.805-0.792-2.088,0-2.893c0.805-0.792,2.088-0.792,2.887,0l16.904,16.911l16.897-16.911
				c0.806-0.792,2.087-0.792,2.887,0c0.798,0.805,0.798,2.088,0,2.893l-16.904,16.897L261.691,85.414L261.691,85.414z M241.907,19.6
				c-27.011,0-48.917,21.906-48.917,48.917c0,27.01,21.906,48.917,48.917,48.917c27.01,0,48.917-21.907,48.917-48.917
				C290.824,41.506,268.917,19.6,241.907,19.6L241.907,19.6z"/>
		</g>
	</g>
</g>
<g id="Page-1_3_" display="none">
	<g id="发票管家_设置账户_2_" transform="translate(-11.000000, -150.000000)" display="inline">
		<g id="listView_3_" transform="translate(0.000000, 136.000000)">
			<path id="ic_moblie" d="M90.229,14H33.471c-1.414,0-2.566,1.158-2.566,2.585v94.807c0,1.428,1.153,2.585,2.566,2.585h56.758
				c1.413,0,2.566-1.157,2.566-2.585V16.585C92.795,15.158,91.642,14,90.229,14z M54.011,18.412h15.616
				c0.154,0,0.279,0.232,0.279,0.498c0,0.26-0.125,0.493-0.279,0.493H54.011c-0.153,0-0.279-0.232-0.279-0.493
				C53.732,18.645,53.857,18.412,54.011,18.412z M66.271,103.967c0,1.157-0.936,2.097-2.084,2.097h-4.677
				c-1.148,0-2.083-0.939-2.083-2.097v-4.71c0-1.157,0.934-2.092,2.083-2.092h4.677c1.148,0,2.084,0.935,2.084,2.092V103.967z
				 M88.415,87.42c0,1.433-1.32,2.59-2.883,2.59H38.817c-1.558,0-2.771-1.157-2.771-2.59V28.227c0-1.427,1.213-2.585,2.771-2.585
				h46.715c1.563,0,2.883,1.158,2.883,2.585V87.42z"/>
		</g>
	</g>
</g>
<g id="Page-1_4_" display="none">
	<g id="发票管家_设置账户_3_" transform="translate(-10.000000, -242.000000)" display="inline">
		<g id="listView_4_" transform="translate(0.000000, 136.000000)">
			<path id="ic_password" d="M30.27,152.393v-16.487c0-14.313,11.279-24.741,26.809-24.741h4.117
				c15.535,0,26.809,10.428,26.809,24.741v16.487H30.27L30.27,152.393z M67.381,179.157v6.229c0,3.296-2.466,8.244-6.186,8.244
				h-4.117c-3.72,0-6.185-4.948-6.185-8.244v-6.229c-1.333-1.773-2.068-3.913-2.068-6.142c0-5.692,4.629-10.312,10.313-10.312
				c5.682,0,10.312,4.619,10.312,10.312C69.449,175.244,68.719,177.384,67.381,179.157L67.381,179.157z M94.188,152.393h-2.067
				v-16.487c0-16.449-13.289-28.867-30.926-28.867h-4.117c-17.637,0-30.925,12.418-30.925,28.867v16.487h-2.068
				c-1.135,0-2.058,0.952-2.058,2.068v30.925C22.026,196.771,31.28,206,42.64,206h32.994c11.37,0,20.614-9.229,20.614-20.614V154.46
				C96.248,153.344,95.33,152.393,94.188,152.393z M59.138,166.83c-3.407,0-6.186,2.804-6.186,6.186c0,1.895,0.846,3.257,1.556,4.04
				c0.328,0.367,0.502,0.864,0.502,1.362v6.968c0,1.688,1.406,4.04,2.073,4.117h4.112c0.666-0.077,2.068-2.43,2.068-4.117v-6.968
				c0-0.498,0.183-0.995,0.507-1.362c0.711-0.783,1.552-2.146,1.552-4.04C65.322,169.634,62.549,166.83,59.138,166.83z"/>
		</g>
	</g>
</g>
<g id="Page-1_5_" display="none">
	<g id="发票管家_设置账户_4_" transform="translate(-10.000000, -355.000000)" display="inline">
		<g id="listView2" transform="translate(0.000000, 341.000000)">
			<g id="ic_person" transform="translate(10.000000, 14.000000)">
				<path id="Shape" d="M50,50c13.748,0,25-11.252,25-25S63.748,0,50,0S25,11.252,25,25S36.252,50,50,50L50,50z M50,62.5
					c-16.873,0-50,8.127-50,25V100h100V87.5C100,70.627,66.873,62.5,50,62.5L50,62.5z"/>
			</g>
		</g>
	</g>
</g>
<g id="Page-1_6_" display="none">
	<g id="发票管家_申请开通" transform="translate(-290.000000, -152.000000)" display="inline">
		<g id="listView_5_" transform="translate(0.000000, 136.000000)">
			<g id="ic_selected" transform="translate(291.000000, 17.000000)">
				<path id="Fill-9731" d="M40.576,95.647c-0.949,0-1.865-0.346-2.54-1.045L1.799,59.421c-1.396-1.401-1.396-3.556,0-4.946
					c1.407-1.328,3.674-1.328,5.069,0l33.15,32.184l51.338-75.182c1.095-1.597,3.327-2.093,4.975-0.971
					c1.646,1.038,2.099,3.193,0.999,4.801L43.558,94.051c-0.592,0.904-1.558,1.462-2.635,1.53
					C40.811,95.647,40.688,95.647,40.576,95.647"/>
			</g>
		</g>
	</g>
</g>
</svg>
