<?xml version="1.0" encoding="utf-8"?>
<!-- Generator: Adobe Illustrator 16.0.0, SVG Export Plug-In . SVG Version: 6.00 Build 0)  -->
<!DOCTYPE svg PUBLIC "-//W3C//DTD SVG 1.1//EN" "http://www.w3.org/Graphics/SVG/1.1/DTD/svg11.dtd">
<svg version="1.1" id="图层_1" xmlns="http://www.w3.org/2000/svg" xmlns:xlink="http://www.w3.org/1999/xlink" x="0px" y="0px"
	 width="24.018px" height="23.99px" viewBox="0 0 24.018 23.99" enable-background="new 0 0 24.018 23.99" xml:space="preserve">
<path d="M12,15.375L3.662,7.42H3.661C3.379,7.16,2.994,7,2.57,7C1.703,7,1,7.671,1,8.499c0,0.404,0.168,0.771,0.44,1.04H1.439
	l9.426,8.992V18.53c0.285,0.283,0.686,0.459,1.13,0.459c0,0,0.002,0,0.004,0h0.002c0.444,0,0.847-0.176,1.13-0.459v0.001
	l9.428-8.992l-0.004-0.004c0.27-0.269,0.436-0.634,0.436-1.037C22.991,7.671,22.286,7,21.419,7c-0.477,0-0.9,0.203-1.189,0.523
	L12,15.375"/>
</svg>
