<?xml version="1.0" encoding="utf-8"?>
<!-- Generator: Adobe Illustrator 16.0.0, SVG Export Plug-In . SVG Version: 6.00 Build 0)  -->
<!DOCTYPE svg PUBLIC "-//W3C//DTD SVG 1.1//EN" "http://www.w3.org/Graphics/SVG/1.1/DTD/svg11.dtd">
<svg version="1.1" id="图层_1" xmlns="http://www.w3.org/2000/svg" xmlns:xlink="http://www.w3.org/1999/xlink" x="0px" y="0px"
	 width="56.69px" height="56.69px" viewBox="0 0 56.69 56.69" enable-background="new 0 0 56.69 56.69" xml:space="preserve">
<g>
	<g>
		<path fill-rule="evenodd" clip-rule="evenodd" d="M36.745,46.367c-0.74,0-1.343,0.603-1.343,1.348
			c0,0.743,0.603,1.349,1.343,1.349c0.741,0,1.344-0.605,1.344-1.349C38.089,46.97,37.486,46.367,36.745,46.367z M31.869,41.076
			c0.74,0,1.347-0.604,1.347-1.348s-0.606-1.346-1.347-1.346c-0.741,0-1.344,0.603-1.344,1.346S31.128,41.076,31.869,41.076z
			 M34.311,32.971c-5.928,0-10.731,4.812-10.731,10.751s4.803,10.752,10.731,10.752c5.926,0,10.731-4.813,10.731-10.752
			S40.236,32.971,34.311,32.971z M31.869,36.824c1.6,0,2.898,1.304,2.898,2.904s-1.299,2.901-2.898,2.901
			c-1.597,0-2.896-1.301-2.896-2.901S30.272,36.824,31.869,36.824z M36.745,50.616c-1.596,0-2.896-1.301-2.896-2.901
			s1.301-2.903,2.896-2.903c1.597,0,2.897,1.303,2.897,2.903S38.342,50.616,36.745,50.616z M39.983,39.032L29.744,49.499
			c-0.151,0.153-0.354,0.232-0.553,0.232c-0.197,0-0.393-0.072-0.544-0.222c-0.306-0.3-0.31-0.792-0.013-1.099l10.242-10.467
			c0.3-0.307,0.79-0.313,1.098-0.011C40.279,38.231,40.284,38.726,39.983,39.032z M55.525,20.002l-3.839-3.845l-0.123-0.124
			c-0.104-0.107-0.246-0.176-0.403-0.184c-0.159-0.008-0.307,0.046-0.421,0.142l-0.095,0.083c-1.345,1.121-3.073,1.794-4.959,1.794
			c-4.281,0-7.757-3.479-7.757-7.773c0-1.902,0.685-3.645,1.817-4.996l0.057-0.068c0.088-0.104,0.143-0.24,0.143-0.389
			c0-0.162-0.063-0.309-0.169-0.417L39.72,4.165l-3.765-3.771c-0.639-0.639-1.669-0.639-2.308,0l-8.591,8.58l1.32,1.298
			c0.382,0.374,0.387,0.988,0.013,1.37c-0.188,0.193-0.438,0.291-0.689,0.291c-0.245,0-0.489-0.092-0.676-0.277l-1.336-1.313
			l-23.21,23.18c-0.637,0.64-0.637,1.676,0,2.313l3.576,3.583l0.209,0.209c0.135,0.127,0.273,0.209,0.455,0.209
			c0.182,0,0.395-0.161,0.456-0.209c0.061-0.047,0.146-0.114,0.146-0.114c1.376-1.247,3.2-2.01,5.202-2.01
			c4.285,0,7.757,3.481,7.757,7.776c0,2.034-0.781,3.889-2.06,5.271l-0.098,0.104c-0.109,0.11-0.177,0.262-0.177,0.425
			c0,0.171,0.071,0.324,0.184,0.436l0.081,0.081l3.84,3.848c0.636,0.639,1.669,0.639,2.306,0l2.691-2.688
			c-2.267-2.335-3.665-5.521-3.665-9.033c0-7.154,5.789-12.955,12.93-12.955c3.521,0,6.712,1.414,9.044,3.701l2.424-2.422
			l-1.354-1.328c-0.379-0.377-0.386-0.988-0.015-1.37c0.375-0.383,0.988-0.387,1.368-0.014l1.37,1.344l8.377-8.363
			C56.162,21.676,56.162,20.641,55.525,20.002z M31.799,16.953c-0.192,0.192-0.442,0.29-0.693,0.29
			c-0.243,0-0.488-0.092-0.675-0.277l-2.227-2.187c-0.381-0.375-0.386-0.989-0.014-1.371c0.377-0.382,0.987-0.388,1.368-0.014
			l2.227,2.188C32.166,15.958,32.171,16.571,31.799,16.953z M37.204,22.266c-0.188,0.194-0.438,0.29-0.69,0.29
			c-0.246,0-0.488-0.092-0.678-0.277l-2.225-2.188c-0.382-0.375-0.389-0.988-0.014-1.369c0.373-0.383,0.987-0.388,1.366-0.014
			l2.227,2.188C37.571,21.271,37.577,21.884,37.204,22.266z M42.612,27.579c-0.19,0.193-0.44,0.291-0.69,0.291
			c-0.244,0-0.49-0.093-0.676-0.276l-2.227-2.189c-0.385-0.374-0.387-0.987-0.016-1.369c0.375-0.382,0.986-0.389,1.366-0.014
			l2.227,2.187C42.978,26.584,42.983,27.197,42.612,27.579z"/>
	</g>
</g>
</svg>
