<?xml version="1.0" encoding="utf-8"?>
<!-- Generator: Adobe Illustrator 16.0.0, SVG Export Plug-In . SVG Version: 6.00 Build 0)  -->
<!DOCTYPE svg PUBLIC "-//W3C//DTD SVG 1.1//EN" "http://www.w3.org/Graphics/SVG/1.1/DTD/svg11.dtd">
<svg version="1.1" id="图层_1" xmlns="http://www.w3.org/2000/svg" xmlns:xlink="http://www.w3.org/1999/xlink" x="0px" y="0px"
	 width="25.066px" height="25.066px" viewBox="0 0 25.066 25.066" enable-background="new 0 0 25.066 25.066" xml:space="preserve">
<path fill="#040000" d="M16.1,12.521l-9.06,9.497v0.002c-0.296,0.32-0.479,0.759-0.479,1.244c0,0.985,0.764,1.786,1.708,1.786
	c0.46,0,0.879-0.191,1.185-0.5v0.002l10.242-10.739l0,0c0.322-0.324,0.522-0.78,0.522-1.287c0,0,0-0.002,0-0.004v-0.002
	c0-0.505-0.2-0.963-0.522-1.286l0,0L9.454,0.494L9.449,0.499C9.143,0.189,8.727,0,8.268,0C7.326,0,6.562,0.803,6.562,1.791
	c0,0.545,0.231,1.025,0.596,1.355L16.1,12.521"/>
</svg>
