<?xml version="1.0" encoding="utf-8"?>
<!-- Generator: Adobe Illustrator 16.0.0, SVG Export Plug-In . SVG Version: 6.00 Build 0)  -->
<!DOCTYPE svg PUBLIC "-//W3C//DTD SVG 1.1//EN" "http://www.w3.org/Graphics/SVG/1.1/DTD/svg11.dtd">
<svg version="1.1" id="图层_1" xmlns="http://www.w3.org/2000/svg" xmlns:xlink="http://www.w3.org/1999/xlink" x="0px" y="0px"
	 width="24.018px" height="23.99px" viewBox="0 0 24.018 23.99" enable-background="new 0 0 24.018 23.99" xml:space="preserve">
<path d="M10.009,23.99c-0.2,0-0.399-0.1-0.5-0.1c-0.3-0.199-0.5-0.6-0.5-0.9v-8.699l-8.8-12.7c-0.2-0.3-0.3-0.7-0.1-1.1
	c0.199-0.3,0.5-0.5,0.899-0.5h22c0.4,0,0.7,0.2,0.9,0.5c0.199,0.3,0.1,0.7-0.101,1l-8.8,12.8v6.699c0,0.4-0.2,0.701-0.6,0.9l-4,2
	C10.309,23.99,10.209,23.99,10.009,23.99z M2.909,1.991l7.899,11.4c0.101,0.199,0.2,0.399,0.2,0.6v7.399l2-1v-6.399
	c0-0.2,0.1-0.4,0.2-0.6l7.899-11.4H2.909z"/>
</svg>
