<?xml version="1.0" encoding="utf-8"?>
<!-- Generator: Adobe Illustrator 16.0.0, SVG Export Plug-In . SVG Version: 6.00 Build 0)  -->
<!DOCTYPE svg PUBLIC "-//W3C//DTD SVG 1.1//EN" "http://www.w3.org/Graphics/SVG/1.1/DTD/svg11.dtd">
<svg version="1.1" id="图层_1" xmlns="http://www.w3.org/2000/svg" xmlns:xlink="http://www.w3.org/1999/xlink" x="0px" y="0px"
	 width="56.69px" height="56.69px" viewBox="0 0 56.69 56.69" enable-background="new 0 0 56.69 56.69" xml:space="preserve">
<g>
	<g>
		<path d="M21.37,47.449H0c0.465,4.747,3.705,9.491,9.405,9.491h23.163C27.19,56.94,22.082,52.196,21.37,47.449z M11.762,7.149
			v37.93h10.708c0.659,0,1.188,0.529,1.188,1.185c0,4.192,4.413,8.304,8.91,8.304h7.586c2.866-2.371,4.866-5.122,4.866-8.272V0
			H18.907C14.978,0,11.762,3.224,11.762,7.149z M37.912,30.843H18.907c-0.654,0-1.187-0.531-1.187-1.187s0.533-1.186,1.187-1.186
			h19.005c0.66,0,1.188,0.531,1.188,1.186S38.572,30.843,37.912,30.843z M37.912,23.726H18.907c-0.654,0-1.187-0.531-1.187-1.187
			c0-0.655,0.533-1.186,1.187-1.186h19.005c0.66,0,1.188,0.531,1.188,1.186C39.101,23.194,38.572,23.726,37.912,23.726z
			 M39.101,15.421c0,0.656-0.528,1.187-1.188,1.187H18.907c-0.654,0-1.187-0.531-1.187-1.187c0-0.655,0.533-1.186,1.187-1.186
			h19.005C38.572,14.235,39.101,14.766,39.101,15.421z M47.452,0h-0.056v11.862h8.37c0.659,0,1.188-0.53,1.188-1.186
			C56.955,5.5,53.625,0,47.452,0z"/>
	</g>
</g>
</svg>
